<svg width="1920" height="700" viewBox="0 0 1920 700" fill="none" xmlns="http://www.w3.org/2000/svg">
  <path
    d="M62.7605 234.512C-51.6172 262.687 -331 314.524 -331 314.524C-331 314.524 -83.8199 633.868 128.923 662.485C281.965 683.071 455.413 626.988 544.316 500.728C619.406 394.085 625.906 282.797 582.315 213.934C532.306 134.932 463.836 103.196 381.613 95.9934C261.014 85.4285 180.308 205.556 62.7605 234.512Z"
    fill="#FFD400" />
  <path
    d="M1713.1 125.64C1798.92 77.9894 1998.94 -48.7451 1998.94 -48.7451C1998.94 -48.7451 2029.16 285.777 1915.48 423.746C1833.7 522.997 1695.97 587.122 1570.05 560.608C1463.7 538.214 1396.6 474.127 1384.15 407.494C1369.87 331.049 1393.68 272.927 1439.81 221.953C1507.46 147.186 1624.89 174.61 1713.1 125.64Z"
    fill="#A3C4BC" />
  <rect x="646" y="74" width="240" height="240" rx="120" fill="#FFD400" />
  <rect x="951" y="303.999" width="180" height="180" rx="90" fill="#F4F1DE" />
</svg>