<svg width="1920" height="552" viewBox="0 0 1920 552" fill="none" xmlns="http://www.w3.org/2000/svg">
<g clip-path="url(#clip0_1_16)">
<mask id="mask0_1_16" style="mask-type:luminance" maskUnits="userSpaceOnUse" x="-121" y="0" width="601" height="527">
<path d="M425.284 0.481605L-121 64.3096L-66.9519 526.891L479.332 463.063L425.284 0.481605Z" fill="white"/>
</mask>
<g mask="url(#mask0_1_16)">
<path d="M391.641 127.853C491.287 196.561 461.344 357.634 369.987 437.031C278.631 516.429 138.427 508.252 60.809 415.378C-173.467 135.055 -181.618 -28.6556 82.4625 106.2C190.258 161.247 256.066 34.3717 391.641 127.853Z" fill="#FFD400"/>
</g>
<mask id="mask1_1_16" style="mask-type:luminance" maskUnits="userSpaceOnUse" x="1494" y="64" width="500" height="469">
<path d="M1994 64H1494V532.471H1994V64Z" fill="white"/>
</mask>
<g mask="url(#mask1_1_16)">
<path d="M1533.8 372.786C1453.32 288.522 1504.81 144.86 1599.99 89.7037C1695.18 34.5476 1821.72 70.8154 1878.51 173.048C2049.89 481.62 2032.72 635.523 1812.32 456.131C1722.35 382.904 1643.31 487.433 1533.8 372.786Z" fill="#A3C4BC"/>
</g>
<path d="M657 460C701.183 460 737 424.183 737 380C737 335.817 701.183 300 657 300C612.817 300 577 335.817 577 380C577 424.183 612.817 460 657 460Z" fill="#FFD400"/>
<path d="M911 344C966.228 344 1011 299.228 1011 244C1011 188.772 966.228 144 911 144C855.772 144 811 188.772 811 244C811 299.228 855.772 344 911 344Z" fill="#F4F1DE"/>
</g>
<defs>
<clipPath id="clip0_1_16">
<rect width="1920" height="552" fill="white"/>
</clipPath>
</defs>
</svg>
