<svg width="1920" height="715" viewBox="0 0 1920 715" fill="none" xmlns="http://www.w3.org/2000/svg">
<g clip-path="url(#clip0_1_2)">
<mask id="mask0_1_2" style="mask-type:luminance" maskUnits="userSpaceOnUse" x="-176" y="0" width="800" height="678">
<path d="M624 0H-176V677.423H624V0Z" fill="white"/>
</mask>
<g mask="url(#mask0_1_2)">
<path d="M553.895 178.337C686.257 294.42 615.809 522.071 470.422 621.357C325.035 720.643 123.861 685.162 27.4018 537.884C-263.742 93.3509 -247.883 -144.541 110.875 94.864C257.317 192.587 373.807 20.3975 553.895 178.337Z" fill="#FFD400"/>
</g>
<path d="M938 209C938 142.726 884.274 89 818 89C751.726 89 698 142.726 698 209C698 275.274 751.726 329 818 329C884.274 329 938 275.274 938 209Z" fill="#FFD400"/>
<path d="M1183 399C1183 349.294 1142.71 309 1093 309C1043.29 309 1003 349.294 1003 399C1003 448.706 1043.29 489 1093 489C1142.71 489 1183 448.706 1183 399Z" fill="#F4F1DE"/>
<mask id="mask1_1_2" style="mask-type:luminance" maskUnits="userSpaceOnUse" x="1325" y="37" width="700" height="656">
<path d="M2025 37H1325V692.86H2025V37Z" fill="white"/>
</mask>
<g mask="url(#mask1_1_2)">
<path d="M1380.73 469.301C1268.04 351.331 1340.13 150.204 1473.39 72.9852C1606.65 -4.23339 1783.81 46.5416 1863.31 189.668C2103.25 621.668 2079.21 837.132 1770.65 585.983C1644.69 483.466 1534.04 629.806 1380.73 469.301Z" fill="#A3C4BC"/>
</g>
</g>
<defs>
<clipPath id="clip0_1_2">
<rect width="1920" height="715" fill="white"/>
</clipPath>
</defs>
</svg>
