<?xml version="1.0" encoding="UTF-8"?><svg id="a" xmlns="http://www.w3.org/2000/svg" width="2699.0431" height="746.7721" viewBox="0 0 2699.0431 746.7721"><defs><style>.b{fill-rule:evenodd;}.b,.c{fill:#3c3c3c;stroke-width:0px;}</style></defs><path class="b" d="m994.3668,446.8732c6.8496,4.8672,2.3597,15.6394-5.9153,14.1795-.1093-.0193-.2174-.0384-.3242-.0574-9.3599-1.6599-18.73-3.5-28.1001-5.5299-142.9052-30.9359-267.2642-100.9763-364.2916-196.4853-6.9626-6.8536.3785-18.3193,9.5075-14.8394,34.7796,13.2573,70.9996,24.0686,108.4943,32.1847,25.2347,5.4672,50.441,9.5812,75.5547,12.3878,1.3851.1548,2.7171.623,3.8877,1.3795,71.5998,46.2699,131.7497,107.4403,201.187,156.7806Z"/><path class="b" d="m1709.5198,683.4302c6.588-8.751,12.984-17.6419,19.1815-26.6648,1.5828-2.3045,3.9286-3.9657,6.6279-4.6938,22.241-5.999,44.2128-13.0171,65.811-21.014,2.4102-.8924,4.2681,2.221,2.3245,3.9025-25.8193,22.3375-53.2097,42.8963-81.8703,61.4628-8.4666,5.4847-18.1418-4.9333-12.0745-12.9927Z"/><path class="b" d="m1200.5495,512.0647c3.9049,7.3473-3.3431,15.6502-11.1154,12.68-52.9595-20.2381-103.891-45.7073-151.9854-76.0373-41.2339-25.9829-79.4468-57.9307-116.4014-88.8267-36.5243-30.5366-74.2923-62.1122-115.5547-88.5633-60.8902-39.0336-126.0924-71.6359-196.4544-89.5055-72.5674-18.4297-205.2131-23.7849-279.5673-19.5056-75.2109,4.3287-169.2782,12.3841-241.1094,19.0023-14.467,1.3329-18.706-19.2194-4.8914-23.7168,13.0831-4.2592,26.6323-8.6639,40.1715-13.0561,101.1409-32.8108,205.4343-54.9659,311.1847-66.0509,45.6689-4.7871,91.7688-8.7222,126.3607-9.6194,27.818-.7214,55.6271,2.1883,82.6493,8.8339,15.7016,3.8615,31.2859,8.1627,46.6391,12.8756,62.1453,19.0562,122.2471,45.269,178.6396,77.9121,55.5676,32.1655,107.686,70.6562,154.9082,114.4023,60.0498,55.6152,111.8525,119.311,153.9707,189.3188,7.8539,13.0552,15.3853,26.3652,22.5554,39.8563Z"/><path class="c" d="m2611.6072,186.9056c-39.5-20.9702-60.3398-41.3401-97.8301-61.3301-47.3298-25.2402-92.0298-49.0801-138.8398-58.98-25.26-5.3301-49.21-6.21-73.24-2.6602,0,0-.1.0103-.101.0103-114.0443,16.0791-212.0165,71.3921-316.1194,115.8086-104.111,44.4199-214.6964,75.635-327.746,85.0552-70.5488,5.8789-141.8926,3.0845-211.4918-10.1636-100.0818-19.0503-194.4329-58.8494-287.8678-98.2188-95.342-40.1729-188.9961-70.8047-291.3442-88.4517-59.0999-10.1899-118.8499-16.5098-178.7598-19.0098-1.1677-.0488-2.3962-.0952-3.6777-.1396-10.6282-.3667-12.9709,14.7319-2.7463,17.6562,5.3657,1.5342,10.7104,3.1191,16.0339,4.7529,128,39.2502,243.5601,106.9204,339.3401,195.6504,60.8098,56.3198,113.6499,121.1499,156.6299,192.5898,12.3274,20.4907,30.9802,57.4429,41.58,78.8376,5.2992,10.696,14.8717,18.6553,26.3602,21.8958,63.6873,17.9634,130.3201,28.928,198.9951,32.0183,3.9956.1797,4.5881,5.8391.7141,6.8335-32.7292,8.4001-66.0168,14.5815-99.6221,18.49-9.8397,1.1443-10.8873,15.0342-1.3264,17.626,130.6594,35.4214,266.7947,33.7583,393.8491-1.541,2.23-.6101,4.45-1.23,6.6602-1.8801.7798-.22,1.5598-.4399,2.3398-.6699,27.1299-7.8901,53.8301-17.3301,79.9399-28.28,1.25-.52,2.5-1.05,3.75-1.5801,51.1001-21.72,99.9502-49.24,145.49-82.28,1.9202-1.3899,3.8301-2.7898,5.74-4.2,41.0601-30.3999,79.3602-65.3298,114.0701-104.6099,22.8-24.99,50.6199-45.1602,80.3401-61.1501,33.6899-18.1399,70.98-32.02,108.5698-39.4099,41.02-8.0601,82.4302-14.3201,123.96-19.0701,27.3501-3.1199,54.4001-5.0801,81.9402-5.0801,18.8601-.0999,38.3601-.1899,55.0901-1.7,22.3699-2.01,28.2197-5.72,28.8799-6.1899,17.6499-17.3699,27.1899-34.78,31.3701-52.3,4.27-17.8999-1.2002-33.1599-10.9302-38.3298Zm-117.8456,3.4329c-8.4972,0-15.3856-6.8882-15.3856-15.3855s6.8884-15.3855,15.3856-15.3855,15.3856,6.8884,15.3856,15.3855-6.8884,15.3855-15.3856,15.3855Z"/></svg>