<svg width="871" height="969" viewBox="0 0 871 969" fill="none" xmlns="http://www.w3.org/2000/svg">
<path d="M612.605 485.607C612.152 481.568 606.273 481.571 605.842 485.613C601.752 524.025 588.853 560.031 566.333 592.939C564.693 595.335 564.358 598.389 565.389 601.104C567.369 606.322 570.591 614.984 572.221 620.317C574.988 629.37 587.549 630.086 591.426 621.449C610.897 578.077 617.764 531.579 612.605 485.607Z" fill="black"/>
<path d="M15.514 452C30.2538 404.299 55.8505 359.974 91.5926 320.256C124.768 283.391 165.711 251.434 213.284 225.274C257.748 200.823 307.641 182.019 357.569 170.894L360.56 170.227L363.092 168.503C375.82 159.835 391.113 148.326 408.82 135C464.166 93.35 539.964 36.3078 612.56 9.81139L612.631 9.78548C629.51 3.53498 647.014 0.496582 666.144 0.496582C701.606 0.496582 737.676 10.9339 775.864 21.9843C806.112 30.7371 824.345 42.3082 856.205 51.4662C864.054 53.7226 870.356 63.9517 870.003 77.585C869.658 90.9327 865.406 105.014 855.274 120.313C854.864 120.757 851.19 124.342 835.282 129.23C823.378 132.888 809.252 135.946 795.592 138.904C781.364 141.985 735.318 147.823 702.219 173.899C683.847 188.374 665.462 208.534 649.053 232.202C614.084 282.639 592.043 343.063 590.075 393.882C589.226 408.509 589.414 423.393 590.633 438.124L590.65 438.321C593.297 466.101 590.589 493.892 582.6 520.923C574.891 547.009 562.531 571.585 545.862 593.969C526.043 620.583 501.113 642.726 472.887 659.19C465.154 663.701 456.261 655.491 460.228 647.465C482.552 602.298 501.868 558.081 490.029 513.613L487.256 503.195L476.559 501.859C464.621 500.367 429.315 499.61 417.495 499.61C317.286 499.61 227.424 552.707 177.114 641.644C142.086 703.567 132.304 773.484 147.62 839.655C149.611 848.257 139.319 854.279 132.795 848.331L131.225 846.898C109.704 827.258 90.3361 805.269 73.6574 781.543C56.8729 757.667 42.6964 731.864 31.5211 704.852C20.1566 677.383 11.8025 648.432 6.69062 618.801L6.68141 618.749C-3.59699 560.333 -0.625182 504.231 15.514 452ZM759.669 54.8091C753.523 67.3106 767.97 77.5239 777.705 67.5591C777.891 67.3697 778.05 67.1447 778.166 66.9071C784.315 54.4043 769.865 44.1895 760.13 54.1571C759.945 54.3465 759.786 54.5715 759.669 54.8091Z" fill="black"/>
<path fill-rule="evenodd" clip-rule="evenodd" d="M168.56 700.142C174.477 681.088 182.603 662.696 192.672 645.482C196.313 639.259 205.449 639.7 208.584 646.193C238.421 707.99 287.961 758.438 348.846 789.719C501.904 868.775 670.925 808.107 757.651 681.62C758.7 680.09 759.753 678.417 760.807 676.612C772.8 656.088 803.882 672.005 794.376 693.792C794.029 694.588 793.677 695.38 793.32 696.167C790.925 701.454 789.13 706.995 786.859 712.344C764.228 766.707 729.594 816.032 686.582 856.222C686.582 856.222 686.582 856.226 686.579 856.226C574.523 966.703 367.593 1004.35 228.172 929.419C200.545 914.571 179.646 889.518 169.993 859.676C153.288 808.035 152.448 749.705 168.56 700.142Z" fill="black"/>
<path d="M274.527 578.286C266.432 617.567 267.221 659.138 276.401 698.563C277.892 704.965 269.809 709.072 265.523 704.087L265.352 703.888C245.016 680.219 228.591 653.649 216.533 624.917L215.073 621.358C213.818 618.298 214.352 614.803 216.436 612.235C229.31 596.371 243.999 581.952 260.242 569.376C266.835 564.271 276.21 570.12 274.527 578.286Z" fill="black"/>
</svg>
