<svg width="52" height="51" viewBox="0 0 52 51" fill="none" xmlns="http://www.w3.org/2000/svg">
  <path
    d="M26.0029 2.1754e-06C11.6362 -0.00580723 0 11.6246 0 25.9797C0 37.3313 7.27919 46.9807 17.4166 50.5244C18.7818 50.8672 18.5727 49.897 18.5727 49.2347V44.7324C10.6893 45.6561 10.3698 40.4393 9.84114 39.5679C8.7722 37.7437 6.24511 37.279 7.00034 36.4076C8.79544 35.4839 10.6254 36.6399 12.7458 39.7712C14.2795 42.0427 17.2714 41.6593 18.7876 41.2817C19.1188 39.9164 19.8275 38.6965 20.8035 37.7495C12.6355 36.2856 9.23115 31.3011 9.23115 25.3755C9.23115 22.4998 10.1781 19.8566 12.0371 17.7245C10.852 14.2098 12.1475 11.2005 12.3218 10.7532C15.697 10.4511 19.2059 13.1699 19.4789 13.3849C21.396 12.8678 23.5862 12.5948 26.0378 12.5948C28.501 12.5948 30.6969 12.8795 32.6314 13.4023C33.2879 12.9027 36.5412 10.5673 39.6782 10.852C39.8467 11.2993 41.1132 14.2389 39.9978 17.7071C41.88 19.8449 42.8386 22.5115 42.8386 25.3929C42.8386 31.3301 39.411 36.3204 31.2198 37.7611C31.9214 38.4511 32.4784 39.274 32.8585 40.1817C33.2385 41.0894 33.4339 42.0637 33.4331 43.0477V49.5833C33.4796 50.1061 33.4331 50.6232 34.3045 50.6232C44.593 47.155 52 37.4358 52 25.9855C52 11.6246 40.358 2.1754e-06 26.0029 2.1754e-06Z"
    fill="white" />
</svg>
  