<svg width="52" height="52" viewBox="0 0 52 52" fill="none" xmlns="http://www.w3.org/2000/svg">
  <path
    d="M26 0C11.642 0 0 11.642 0 26C0 40.358 11.642 52 26 52C40.358 52 52 40.358 52 26C52 11.642 40.358 0 26 0ZM38.4951 19.5987C38.5125 19.8714 38.5125 20.1558 38.5125 20.4344C38.5125 28.954 32.0241 38.7679 20.1674 38.7679C16.5112 38.7679 13.1219 37.7058 10.2665 35.8777C10.7888 35.9357 11.2879 35.9589 11.8219 35.9589C14.8397 35.9589 17.6138 34.9375 19.825 33.208C16.9929 33.15 14.6134 31.2929 13.8009 28.7393C14.7933 28.8844 15.6871 28.8844 16.7085 28.6232C15.2502 28.3269 13.9395 27.5349 12.9989 26.3818C12.0584 25.2286 11.5461 23.7854 11.5491 22.2973V22.2161C12.4022 22.6978 13.4062 22.9937 14.4567 23.0344C13.5736 22.4459 12.8494 21.6485 12.3483 20.7131C11.8472 19.7777 11.5846 18.7331 11.5839 17.6719C11.5839 16.4705 11.8973 15.3737 12.4603 14.4219C14.0789 16.4145 16.0987 18.0441 18.3884 19.205C20.6781 20.3658 23.1865 21.0319 25.7504 21.1598C24.8393 16.7781 28.1125 13.2321 32.0473 13.2321C33.9045 13.2321 35.5759 14.0098 36.754 15.2634C38.2107 14.9906 39.6036 14.4451 40.8455 13.7138C40.3638 15.2054 39.354 16.4647 38.0134 17.2598C39.3134 17.1205 40.567 16.7607 41.7277 16.2558C40.8513 17.5442 39.7545 18.6875 38.4951 19.5987Z"
    fill="white" />
</svg>
  